<svg width="18" height="14" viewBox="0 0 18 14" fill="none" xmlns="http://www.w3.org/2000/svg">
<path d="M0.279297 0.399414H17.7211V13.6014H0.279297V0.399414Z" fill="#128807"/>
<path d="M12.2336 3.98255C12.3896 4.17435 12.5492 4.37835 12.7094 4.59135C12.7432 5.02555 12.7522 5.42375 12.7864 5.85855C12.7816 6.04455 12.7244 6.29175 12.67 6.31515C12.67 6.31515 12.5872 6.36275 12.5318 6.30995C12.4916 6.29375 12.3306 6.04135 12.3306 6.04135C12.2482 5.96575 12.1934 5.98735 12.1348 6.04135C11.9732 6.19735 11.9 6.48975 11.7902 6.69115C11.7618 6.73615 11.682 6.77435 11.5934 6.68755C11.4088 6.43535 11.4638 6.09635 11.4744 6.04375C11.4737 6.04731 11.4728 6.05085 11.4718 6.05435C11.2712 6.28035 11.36 6.65515 11.4054 6.73575C11.4716 6.86815 11.525 6.95275 11.6538 7.01835C11.771 7.10455 11.8624 7.05075 11.9126 6.99035C12.0306 6.86815 12.0322 6.55535 12.0876 6.49355C12.1264 6.37995 12.2238 6.39955 12.2712 6.44975C12.3172 6.51595 12.3716 6.55895 12.4392 6.59495C12.5492 6.69195 12.6806 6.70955 12.81 6.62115C12.8984 6.57155 12.9558 6.50695 13.0076 6.37975C13.0632 6.23115 13.0358 5.45215 13.0234 5.01895C13.1072 5.13711 13.1894 5.25639 13.27 5.37675C13.3058 5.75715 13.322 6.13175 13.3102 6.49095C13.3018 6.56235 13.5594 6.27775 13.5578 6.14275C13.5566 6.02475 13.558 5.91775 13.5578 5.81835C13.6828 6.01795 13.8038 6.22075 13.9182 6.42615C13.989 6.38855 13.9648 5.98735 13.92 5.93195C13.8002 5.73095 13.647 5.51395 13.5282 5.34595C13.5048 5.13395 13.4728 4.88375 13.4582 4.80715C13.4356 4.68775 13.4128 4.50815 13.3786 4.36635C13.3692 4.31095 13.3408 4.13415 13.3498 4.11715C13.3638 4.07755 13.4166 4.11835 13.4426 4.07255C13.4814 4.03015 13.3078 3.57995 13.2196 3.45155C13.188 3.39395 13.1306 3.41395 13.0596 3.50755C12.9938 3.56915 13.0178 3.70975 13.043 3.84335C13.1082 4.18415 13.1666 4.53115 13.2126 4.87715C13.1272 4.75015 13.023 4.59675 12.9204 4.44855L12.9072 4.38115C12.9072 4.37495 12.893 4.10235 12.881 4.03735C12.8788 4.01095 12.8726 4.00335 12.9002 4.00675C12.9294 4.03135 12.9336 4.03275 12.9518 4.04095C12.9814 4.04635 13.0072 3.99635 12.9894 3.94995L12.7148 3.44275C12.7038 3.43195 12.6914 3.42055 12.6772 3.41835C12.663 3.41615 12.6474 3.42315 12.63 3.44895C12.6085 3.46766 12.5913 3.49077 12.5795 3.51672C12.5678 3.54267 12.5617 3.57085 12.5618 3.59935C12.57 3.71935 12.5912 3.84235 12.5994 3.96235L12.6082 4.01055C12.5985 3.99817 12.5883 3.98622 12.5776 3.97475C12.3436 3.72895 12.685 3.93455 12.533 3.74475C12.4044 3.60355 12.3668 3.55855 12.2566 3.47355C12.2014 3.43795 12.168 3.36975 12.1498 3.48575C12.1426 3.58775 12.135 3.70595 12.142 3.79195C12.1414 3.83975 12.191 3.92975 12.2336 3.98255ZM6.47081 5.78835C6.46821 5.83275 6.59361 5.88675 6.60121 5.98955C6.61921 6.03195 6.57441 6.16755 6.61161 6.18015C6.64581 6.19435 6.69341 6.08635 6.71141 5.98595C6.72141 5.93095 6.66841 5.73875 6.57841 5.70435C6.56439 5.70111 6.54996 5.69997 6.53561 5.70095C6.49221 5.70375 6.45341 5.72715 6.47081 5.78835Z" fill="white"/>
<path d="M12.6095 5.04514C12.6063 5.04453 12.603 5.04481 12.5999 5.04594C12.5999 5.04594 12.0665 5.42534 12.0533 5.43854C12.0003 5.48554 12.0269 5.65094 12.0533 5.63174C12.0915 5.64634 12.6285 5.28254 12.6183 5.23994C12.6417 5.24154 12.6529 5.05294 12.6095 5.04514ZM13.5905 4.18014C13.6093 4.23774 13.5621 4.42354 13.6009 4.44074C13.6367 4.45994 13.6871 4.31234 13.7059 4.17574C13.7163 4.10094 13.6609 3.83854 13.5669 3.79174C13.5594 3.78972 13.5518 3.78851 13.5441 3.78814C13.4903 3.78634 13.4317 3.82714 13.4549 3.90714C13.4413 3.95094 13.5697 4.09914 13.5905 4.18014ZM12.3093 5.04954C12.3113 4.94114 12.3217 4.79714 12.3277 4.70754C12.3303 4.67374 12.3381 4.63654 12.3705 4.62794C12.4029 4.61954 12.4591 4.66054 12.4597 4.62534C12.4537 4.55634 12.4401 4.45474 12.4011 4.40674C12.3913 4.39266 12.3784 4.38105 12.3634 4.37285C12.3484 4.36465 12.3316 4.3601 12.3145 4.35954C12.2581 4.35674 12.1979 4.39334 12.1825 4.47054C12.1827 4.51614 12.2031 4.54114 12.1991 4.58254C12.1931 4.60614 12.1689 4.62174 12.1107 4.59394C12.1197 4.58554 12.0731 4.51954 12.0731 4.51954C12.0277 4.49194 11.9673 4.52094 11.9279 4.54674C11.9138 4.57359 11.9054 4.60304 11.9031 4.63328C11.9008 4.66351 11.9048 4.69389 11.9147 4.72254C11.9799 4.84254 12.2029 5.04754 12.3093 5.04954ZM10.0407 5.75634L10.0415 5.75554L10.0423 5.75474L10.0431 5.75394V5.75214C10.0433 5.74919 10.043 5.74622 10.0423 5.74334L9.99148 5.71354L8.99188 5.70914C8.98221 5.70575 8.97306 5.70104 8.96468 5.69514L8.96288 5.69334L8.96208 5.69254L8.96128 5.69174L8.96048 5.68994L8.95968 5.68914V5.68834L8.95888 5.68754V5.68114L8.95968 5.68034C8.95999 5.67976 8.96025 5.67916 8.96048 5.67854C8.96528 5.67194 8.97708 5.66574 8.99188 5.66014C9.23048 5.62754 9.65468 5.55814 9.68288 5.15034C9.67848 4.93794 9.59208 4.79874 9.33128 4.76034C9.13968 4.77514 9.00308 4.96034 9.02508 5.16434C9.01588 5.21934 9.04368 5.32714 8.98748 5.33934C8.62008 5.37294 8.21908 5.60314 8.20568 5.76794H8.20488L8.20408 5.76874C8.20352 5.76908 8.20291 5.76935 8.20228 5.76954H8.20048L8.19788 5.77034H8.19268L8.18928 5.76954C8.16528 5.76294 8.13468 5.72354 8.13948 5.66814C8.12548 5.38334 8.03288 5.06094 7.88768 4.81274C7.83588 4.76094 7.81328 4.73994 7.79848 4.73754H7.79168C7.79008 4.73814 7.78868 4.73934 7.78728 4.74014L7.78468 4.74194C7.77348 4.75034 7.76008 4.76994 7.73048 4.79094C7.68048 4.84794 7.67148 4.88754 7.67448 5.00174C7.67728 5.01374 7.76948 5.27014 7.84768 5.45034C7.90028 5.63774 7.94908 5.85214 7.91328 6.05474C7.78988 6.32254 7.54208 6.56274 7.30288 6.69314C7.18108 6.73214 7.07568 6.71894 7.04748 6.69234L7.04668 6.69154C6.97668 6.64454 6.97508 6.56074 6.97928 6.54634V6.54554L6.98008 6.54474C7.18188 6.40414 7.41268 6.29034 7.59308 5.91074C7.64648 5.76574 7.66268 5.67854 7.60968 5.45414C7.58908 5.37054 7.56348 5.30174 7.50648 5.24254L7.50728 5.24174C7.54168 5.22534 7.63088 5.29094 7.64468 5.24954C7.62348 5.14234 7.55108 4.99854 7.46888 4.92514C7.39688 4.85974 7.31868 4.85214 7.25288 4.91194C7.17868 4.95314 7.16288 5.10134 7.19868 5.23114C7.23828 5.32874 7.34548 5.34594 7.42168 5.54254V5.54334C7.42328 5.55574 7.44788 5.69014 7.40948 5.74454C7.37828 5.84174 6.97788 6.15754 6.94948 6.17654C6.94908 6.17694 6.94708 6.17794 6.94688 6.17834L6.94608 6.17914L6.94528 6.17994L6.94448 6.18074H6.94288L6.94208 6.17994V6.17914L6.94128 6.17734C6.94008 6.16954 6.94228 6.14934 6.94128 6.11694C6.93868 6.05774 6.96308 5.92394 6.96148 5.90094V5.90014L6.96068 5.89934V5.89854H6.95988C6.82748 5.98394 6.78368 6.24594 6.75968 6.32354C6.42448 6.55514 6.04388 6.72734 5.82468 6.96194C5.71048 7.14014 6.61128 6.75714 6.71588 6.71094L6.71848 6.71354C6.73828 6.73534 6.74008 6.81174 6.79988 6.88054C6.89348 7.00734 7.09248 7.08554 7.28608 7.03714C7.61088 6.91974 7.79788 6.69854 7.98848 6.45294C8.01568 6.41334 8.05828 6.38214 8.09788 6.41274C8.22868 6.70574 8.60608 6.91434 9.09408 6.93574C9.20708 6.79854 9.15308 6.73094 9.10728 6.70214C9.09308 6.69274 8.86468 6.60374 8.82908 6.51494C8.80668 6.43234 8.86108 6.35914 8.96988 6.30414C9.28308 6.26634 9.59108 6.22414 9.88908 6.12834C9.89208 6.02814 9.95108 5.87854 9.99048 5.81354C10.0165 5.76714 10.0341 5.76274 10.0407 5.75634ZM9.21628 5.12854C9.21697 5.12543 9.21819 5.12245 9.21988 5.11974C9.22048 5.11874 9.22088 5.11714 9.22168 5.11614L9.22248 5.11534C9.22385 5.11378 9.22532 5.11231 9.22688 5.11094C9.2343 5.10546 9.24309 5.10214 9.25228 5.10134C9.27975 5.10023 9.3069 5.10756 9.33008 5.12234C9.36988 5.14534 9.39448 5.18014 9.39128 5.20534V5.20794L9.38948 5.21054L9.38868 5.21314L9.38788 5.21494L9.38708 5.21674C9.38557 5.21898 9.38383 5.22106 9.38188 5.22294C9.36268 5.24074 9.31848 5.23834 9.27688 5.21414C9.23748 5.19134 9.21308 5.15634 9.21568 5.13114C9.21548 5.13054 9.21608 5.12914 9.21628 5.12854ZM8.81668 6.12974C8.70948 6.16654 8.60628 6.19514 8.60588 6.35014C8.61988 6.42694 8.61708 6.46714 8.60508 6.48574C8.60399 6.4873 8.60279 6.48877 8.60148 6.49014L8.60068 6.49094L8.59988 6.49174L8.59908 6.49254L8.59828 6.49334L8.59648 6.49414C8.59483 6.49517 8.59309 6.49604 8.59128 6.49674C8.58988 6.49734 8.58768 6.49734 8.58608 6.49754C8.56048 6.50134 8.52348 6.47694 8.49608 6.46254C8.42988 6.41514 8.24428 6.30014 8.21788 6.05314C8.21408 5.99734 8.25588 5.94934 8.32288 5.94474H8.33428C8.44568 5.97494 8.60988 5.97814 8.75228 5.99294C8.86808 6.00074 8.92528 6.09154 8.81668 6.12974Z" fill="white"/>
<path d="M8.48576 5.16197C8.60096 5.21677 8.87516 5.18457 8.80856 5.00717C8.80743 4.97824 8.80537 4.94936 8.80236 4.92057C8.79056 4.89317 8.76896 4.88277 8.74816 4.88637C8.72736 4.88997 8.70736 4.90717 8.70016 4.93537C8.69556 4.95397 8.70896 4.98457 8.69236 4.99397C8.68276 5.00377 8.64536 4.99797 8.64696 4.94677C8.64696 4.93037 8.63496 4.91257 8.62776 4.90217C8.62056 4.89737 8.61636 4.89597 8.60316 4.89597C8.58716 4.89657 8.58656 4.90077 8.57776 4.91437C8.57396 4.92817 8.56896 4.94157 8.56896 4.95717C8.56696 4.97537 8.56056 4.98157 8.54716 4.98437C8.53216 4.98437 8.53576 4.98597 8.52356 4.97817C8.51636 4.97037 8.50696 4.96717 8.50696 4.95377C8.50706 4.93836 8.5047 4.92303 8.49996 4.90837C8.49356 4.89997 8.48256 4.89637 8.47116 4.89357C8.40836 4.89377 8.40456 4.96517 8.40816 4.99237C8.40316 4.99737 8.39996 5.12637 8.48576 5.16197ZM12.6386 9.94717C12.5698 9.95757 12.377 9.97697 12.377 9.97697C12.154 9.95037 11.9902 9.94777 11.7394 9.93857C11.7626 9.90917 11.8034 9.79017 11.7534 9.74697C11.7404 9.73617 11.7208 9.73017 11.694 9.73217H11.6914L11.6906 9.73137C11.6898 9.73117 11.6886 9.73097 11.688 9.73057C11.6863 9.72931 11.6848 9.72783 11.6836 9.72617L11.6818 9.72437C11.6692 9.70597 11.6622 9.66057 11.6538 9.64917L11.653 9.64837L11.6522 9.64757L11.6504 9.64677H11.6488L11.648 9.64757C11.482 9.69017 11.4872 9.86237 11.5938 9.93797C9.84196 9.93797 7.15356 9.90817 6.57696 9.90817C6.25436 9.90817 5.23396 9.86977 5.21436 9.86977C5.43316 10.1898 5.75016 10.255 6.16516 10.2616C6.94336 10.2616 10.5486 10.252 11.5746 10.252C11.5016 10.3816 11.5812 10.59 11.6384 10.628L11.6428 10.6306L11.6498 10.6332H11.6524C11.7204 10.6492 11.7502 10.6 11.773 10.5642C11.8832 10.574 12.5034 10.5828 12.5602 10.5634L12.561 10.5626C12.5994 10.619 12.6374 10.6724 12.7106 10.6632C12.8384 10.6358 12.9392 10.6218 12.9424 10.3624C12.9422 10.3618 12.929 9.91937 12.6386 9.94717ZM12.5136 10.4212C12.5121 10.4219 12.5107 10.4225 12.5092 10.423H12.5024C12.4192 10.421 12.3712 10.419 12.288 10.4168C12.2879 10.4126 12.2873 10.4085 12.2862 10.4046C12.2664 10.3462 12.1238 10.3502 12.0902 10.3958L12.0884 10.3984L12.0866 10.402C12.0859 10.4034 12.0853 10.4049 12.0848 10.4064C12.0842 10.4082 12.0842 10.4106 12.084 10.4126C12.0838 10.4146 12.083 10.4174 12.0832 10.4196C11.971 10.433 11.87 10.4158 11.7578 10.4118C11.7248 10.3708 11.7288 10.2966 11.7674 10.2788H11.7682C12.0238 10.2912 12.264 10.2812 12.5194 10.2936C12.5602 10.328 12.54 10.4068 12.5136 10.4212ZM9.51296 6.87037C9.51296 6.87477 9.55796 6.91337 9.61096 6.88257C9.72256 6.83997 9.79216 6.79857 9.94856 6.76457C9.98956 6.76377 9.98716 6.65397 9.92236 6.64997C9.83776 6.65417 9.75956 6.65857 9.67476 6.72517C9.62276 6.73717 9.61376 6.70557 9.60216 6.67697C9.58895 6.60637 9.63196 6.55677 9.62316 6.50377C9.62556 6.50617 9.59696 6.48037 9.56016 6.47837C9.54689 6.47756 9.53365 6.48025 9.52176 6.48617C9.51916 6.48617 9.40396 6.56397 9.36696 6.61817C9.34436 6.63537 9.34696 6.65037 9.35396 6.68017C9.37156 6.72077 9.40255 6.70797 9.43796 6.68897C9.48476 6.68257 9.50736 6.71317 9.50355 6.76937C9.48176 6.83997 9.51296 6.86597 9.51296 6.87037ZM13.3754 6.84237C13.3536 6.81737 13.3044 6.83237 13.2714 6.82837C13.2556 6.82837 13.204 6.82077 13.2286 6.77497C13.2492 6.74657 13.2566 6.72957 13.2706 6.69457C13.2862 6.66037 13.2726 6.63717 13.2164 6.61857C13.1937 6.61397 13.1705 6.61189 13.1474 6.61237C13.1266 6.61297 13.1048 6.61597 13.073 6.61857C13.0388 6.62577 13.0268 6.64077 13.0206 6.68237C13.023 6.74537 13.0616 6.74217 13.101 6.76717C13.1238 6.79617 13.1388 6.82257 13.0992 6.87037C13.0618 6.90457 13.0352 6.92357 12.9978 6.95777C12.9802 6.98797 12.9692 7.03417 13.0232 7.04877C13.123 7.07677 13.3538 6.92677 13.3538 6.92377C13.3908 6.89577 13.3784 6.84237 13.3754 6.84237ZM11.592 6.54457C11.6722 6.54517 11.765 6.36117 11.8046 6.17897C11.8264 5.92817 11.7902 5.77537 11.7836 5.62797C11.7772 5.48057 11.6166 4.28417 11.5842 4.17257C11.545 3.96157 11.7402 4.14477 11.7188 4.02217C11.6514 3.86757 11.483 3.64237 11.4302 3.50797C11.4104 3.47197 11.408 3.43877 11.3918 3.44157C11.382 3.44317 11.3678 3.45797 11.341 3.49317C11.2752 3.70837 11.252 3.88417 11.2772 4.01797C11.4464 4.90037 11.6196 5.70437 11.592 6.54457Z" fill="white"/>
<path d="M14.0917 4.20796C14.0841 4.15236 14.0595 4.02436 14.0689 4.00776C14.0841 3.96856 14.1613 4.01176 14.1887 3.96656C14.2289 3.92536 13.9893 3.61856 13.9053 3.48736C13.8885 3.45436 13.8783 3.42736 13.8633 3.42876C13.8517 3.42996 13.8377 3.44856 13.8161 3.49436C13.7641 3.57936 13.7463 3.73156 13.7671 3.86616C13.8921 4.71156 13.9849 5.52996 14.0041 6.27916C13.9933 6.35036 13.9903 6.38816 13.9569 6.47776C13.8831 6.57236 13.8017 6.69076 13.7251 6.74796C13.6485 6.80516 13.4855 6.85956 13.4321 6.90196C13.2629 6.99976 13.2621 7.11216 13.3989 7.11616C13.6345 7.08876 13.9135 7.06956 14.1055 6.77936C14.1569 6.69816 14.2175 6.47776 14.2201 6.34296C14.2381 5.55236 14.2101 4.77936 14.0917 4.20796ZM12.5337 6.07376C12.5695 6.09296 12.6639 5.97696 12.6605 5.83156C12.6709 5.75676 12.6339 5.48116 12.5399 5.43456C12.5287 5.43149 12.5171 5.43061 12.5057 5.43196C12.4565 5.43796 12.4099 5.48456 12.4313 5.55876C12.4177 5.60236 12.4979 5.75496 12.5187 5.83596C12.5375 5.89356 12.4947 6.05656 12.5337 6.07376ZM5.11088 3.73316C5.22608 3.78796 5.44187 3.76476 5.43267 3.57916C5.43267 3.56276 5.42908 3.50756 5.42748 3.49256C5.41568 3.46536 5.39408 3.45496 5.37347 3.45856C5.35267 3.46216 5.33267 3.47936 5.32547 3.50756C5.32088 3.52616 5.33347 3.55676 5.31667 3.56616C5.30707 3.57576 5.27048 3.56936 5.27207 3.51796C5.27207 3.50156 5.26007 3.48456 5.25287 3.47416C5.24567 3.46936 5.24067 3.46796 5.22747 3.46796C5.21147 3.46856 5.21167 3.47276 5.20287 3.48636C5.19887 3.50016 5.19387 3.51356 5.19387 3.52916C5.19187 3.54736 5.18447 3.55356 5.17107 3.55636C5.15607 3.55636 5.15967 3.55796 5.14747 3.55016C5.14027 3.54236 5.13168 3.53916 5.13168 3.52576C5.13154 3.51031 5.12891 3.49498 5.12387 3.48036C5.11747 3.47196 5.10747 3.46756 5.09587 3.46456C5.03307 3.46476 5.02847 3.53696 5.03207 3.56436C5.02747 3.56936 5.02528 3.69756 5.11088 3.73316ZM6.85007 4.33416C6.83073 4.33396 6.81179 4.33976 6.79587 4.35076C6.69407 4.40576 6.65467 4.56916 6.71807 4.66476C6.77727 4.74896 6.87087 4.71816 6.88327 4.71816C6.98307 4.73056 7.04248 4.53096 7.04248 4.53096C7.04248 4.53096 7.04547 4.47476 6.92707 4.58076C6.87727 4.59016 6.87048 4.57216 6.85807 4.54396C6.84617 4.49143 6.85172 4.43645 6.87387 4.38736C6.88467 4.35636 6.87367 4.33656 6.85007 4.33416ZM10.9903 6.36476C10.8051 6.55796 10.5383 6.79636 10.2477 6.90616C10.2165 6.94116 10.3255 7.09076 10.4663 7.09076C10.7019 7.06336 10.9091 6.93116 11.1013 6.58256C11.1527 6.50136 11.2429 6.32736 11.2455 6.19256C11.2635 5.40196 11.2057 4.78736 11.0871 4.21596C11.0795 4.16036 11.0847 4.09456 11.0941 4.07776C11.1093 4.05956 11.1611 4.07816 11.1885 4.03316C11.2287 3.99196 11.0809 3.65096 10.9969 3.51976C10.9801 3.48676 10.9699 3.46056 10.9549 3.46196C10.9433 3.46316 10.9293 3.48096 10.9077 3.52676C10.8557 3.61176 10.8205 3.75976 10.8245 3.89856C10.9369 4.67696 10.9715 5.35816 11.0449 6.13676C11.0513 6.21176 11.0403 6.32116 10.9903 6.36476ZM4.58067 5.19756C4.30427 5.20256 3.89948 5.55996 3.88888 5.75816C4.18047 5.61816 4.46707 5.48336 4.76347 5.33836C4.71567 5.26696 4.76067 5.20276 4.58067 5.19756ZM4.04467 6.66416C3.97207 6.81176 3.94168 6.71076 3.93528 6.62836C3.92408 6.47196 3.93928 6.32796 3.95628 6.21376C3.96528 6.15536 3.96508 6.13476 3.95808 6.13496C3.95108 6.13516 3.93728 6.15596 3.91868 6.17956C3.75428 6.44156 3.73967 6.83256 3.83027 6.94916C3.87847 7.00436 3.95788 7.02856 4.01648 7.01116C4.11988 6.96636 4.16527 6.75716 4.14067 6.68056C4.10647 6.62676 4.07907 6.61836 4.04467 6.66416Z" fill="white"/>
<path d="M4.07575 4.95884C4.41175 4.99104 4.22615 4.39084 4.34775 4.28184C4.37075 4.22804 4.41335 4.22704 4.41675 4.29504V4.80484C4.41375 4.97064 4.52275 5.01984 4.60735 5.05404C4.69535 5.04724 4.75375 5.04964 4.78835 5.13544L4.83035 6.01784C4.83035 6.01784 5.03395 6.07644 5.04375 5.52184C5.05355 5.19624 4.97895 4.92304 5.02275 4.85984C5.02435 4.79764 5.10395 4.79444 5.15915 4.82484C5.24695 4.88684 5.28595 4.96304 5.42235 4.93244C5.62995 4.87524 5.75515 4.77444 5.75815 4.61504C5.74595 4.46344 5.72855 4.31184 5.66275 4.16024C5.67195 4.13264 5.62295 4.06104 5.63215 4.03344C5.66955 4.09184 5.72595 4.08704 5.73895 4.03344C5.70355 3.91704 5.64855 3.80544 5.55975 3.75704C5.48635 3.69224 5.37875 3.70604 5.33935 3.84104C5.32115 3.99664 5.39575 4.18104 5.50895 4.33164C5.53295 4.39044 5.56675 4.48844 5.55175 4.57644C5.49155 4.61084 5.43175 4.59644 5.38115 4.54324C5.38115 4.54324 5.21575 4.41944 5.21575 4.39184C5.25955 4.11104 5.22515 4.07884 5.20095 4.00084C5.18395 3.89324 5.13295 3.85924 5.09155 3.78564C5.05015 3.74184 4.99415 3.74184 4.96735 3.78564C4.89435 3.91224 4.92855 4.18424 4.98135 4.30604C5.01955 4.41804 5.07795 4.48804 5.05035 4.48804C5.02775 4.55144 4.98035 4.53664 4.94635 4.46364C4.89755 4.31264 4.88775 4.08764 4.88775 3.98604C4.87315 3.86024 4.85675 3.59164 4.77415 3.52344C4.75215 3.49344 4.72595 3.48284 4.70075 3.48584C4.66815 3.48964 4.63755 3.51604 4.62295 3.55144C4.61755 3.67624 4.61675 3.80104 4.63075 3.91604C4.68755 4.11784 4.70555 4.29544 4.73315 4.50204C4.74075 4.77884 4.57335 4.62184 4.58095 4.48464C4.61955 4.30644 4.60915 4.02584 4.57475 3.95464C4.54755 3.88344 4.51595 3.86604 4.44975 3.87764C4.39715 3.87444 4.26115 4.02244 4.22315 4.26764C4.22315 4.26764 4.19155 4.39344 4.17775 4.50544C4.15915 4.63204 4.07535 4.72184 4.01675 4.48804C3.96615 4.31804 3.93515 3.89944 3.85055 3.99744C3.82675 4.32464 3.79795 4.89984 4.07575 4.95884Z" fill="white"/>
<path d="M4.18831 3.72598C4.20591 3.76998 4.17091 3.91138 4.20751 3.92458C4.24131 3.93918 4.28771 3.82658 4.30551 3.72258C4.31531 3.66558 4.30791 3.47038 4.17511 3.43038C4.16821 3.4288 4.16118 3.42793 4.15411 3.42778C4.10331 3.42638 4.04751 3.45778 4.06931 3.51878C4.05671 3.55178 4.16871 3.66418 4.18831 3.72598ZM6.10651 6.27058C6.22631 5.87178 6.10411 5.57118 6.14411 5.53418L6.14591 5.53338L6.14771 5.53258L6.14951 5.53178C6.1512 5.5313 6.15295 5.53103 6.15471 5.53098C6.30251 5.69018 6.50991 5.55118 6.55531 5.49598C6.57471 5.46838 6.6235 5.45058 6.65771 5.48638C6.7729 5.56918 6.97511 5.53018 7.01711 5.38398C7.04151 5.24118 7.06211 5.09398 7.06691 4.94138C6.99191 4.96478 6.93131 4.98218 6.90691 5.00778C6.90115 5.01353 6.89719 5.02082 6.89551 5.02878C6.88891 5.07098 6.88271 5.11338 6.87631 5.15558C6.87563 5.15892 6.87448 5.16215 6.87291 5.16518C6.86937 5.17064 6.86457 5.17517 6.85891 5.17838C6.8323 5.19278 6.78611 5.18458 6.78371 5.14598C6.74791 4.98358 6.6011 4.96258 6.51171 5.21418C6.4517 5.26278 6.34211 5.27238 6.33071 5.19938C6.34531 5.03058 6.27731 5.00778 6.14091 5.08738C6.09711 4.75298 6.05351 4.43358 6.00971 4.09918C6.06651 4.09758 6.11871 4.13878 6.17071 4.07378C6.11451 3.89898 5.9955 3.54298 5.92851 3.50958L5.92671 3.50878C5.92253 3.50394 5.91784 3.49958 5.91271 3.49578C5.91128 3.49484 5.90981 3.49397 5.90831 3.49318C5.90571 3.49178 5.90231 3.49058 5.89951 3.48958C5.89357 3.48768 5.8873 3.48707 5.88111 3.48778C5.86451 3.48998 5.84591 3.49938 5.82431 3.50438C5.75291 3.52718 5.68611 3.58878 5.70711 3.70898C5.79151 4.22198 5.84651 4.61358 5.93091 5.12678C5.94391 5.18678 5.89351 5.26598 5.82871 5.25798C5.71831 5.18318 5.69091 5.03198 5.50251 5.03838C5.36611 5.03998 5.21051 5.18838 5.19111 5.33138C5.16831 5.44498 5.16031 5.56818 5.19111 5.66718C5.28691 5.78238 5.40171 5.77018 5.50251 5.74418C5.58531 5.71018 5.6535 5.62858 5.68271 5.64798H5.68351V5.64878C5.70151 5.68038 5.68171 5.94718 5.29351 6.15338C5.05491 6.26058 4.86491 6.28618 4.76271 6.09138C4.69931 5.96958 4.76731 5.50578 4.61131 5.61298C4.15031 6.80158 5.69151 6.96738 5.86371 5.66198C5.87491 5.62518 5.90891 5.58818 5.93271 5.59718C5.94331 5.60158 5.95291 5.61598 5.95631 5.64258C5.92051 6.82458 4.76391 6.90558 4.56751 6.53378C4.51871 6.44618 4.50411 6.25098 4.49931 6.13418C4.49051 6.06338 4.47271 6.02258 4.45211 6.00658C4.40531 5.97138 4.34231 6.06318 4.32871 6.22258C4.30911 6.35078 4.31471 6.38598 4.31471 6.50938C4.37611 7.44298 5.86451 7.04178 6.10651 6.27058ZM5.53151 5.46278V5.46358L5.53071 5.46538C5.51911 5.48038 5.4783 5.47418 5.4493 5.47418C5.4143 5.47258 5.39691 5.46678 5.37591 5.43838C5.36591 5.40658 5.39651 5.37538 5.41011 5.35178L5.41091 5.35098C5.41268 5.34841 5.41477 5.34606 5.41711 5.34398C5.4307 5.33243 5.44739 5.32512 5.46511 5.32298C5.46891 5.32258 5.47251 5.32198 5.47651 5.32218C5.50351 5.32258 5.53211 5.33578 5.54731 5.37378C5.5528 5.38868 5.55423 5.40478 5.55145 5.42042C5.54867 5.43606 5.54179 5.45068 5.53151 5.46278ZM10.4533 4.57118C10.5685 4.62598 10.7851 4.60198 10.7761 4.41638C10.775 4.38745 10.7729 4.35857 10.7699 4.32978C10.7581 4.30238 10.7365 4.29198 10.7157 4.29558C10.6949 4.29918 10.6749 4.31718 10.6677 4.34538C10.6631 4.36398 10.6765 4.39378 10.6599 4.40318C10.6503 4.41298 10.6129 4.40718 10.6145 4.35598C10.6145 4.33958 10.6025 4.32178 10.5953 4.31138C10.5881 4.30658 10.5831 4.30518 10.5699 4.30518C10.5539 4.30578 10.5543 4.30998 10.5455 4.32358C10.5417 4.33738 10.5367 4.35078 10.5367 4.36638C10.5347 4.38458 10.5283 4.39078 10.5149 4.39358C10.4999 4.39358 10.5025 4.39518 10.4905 4.38738C10.4833 4.37958 10.4747 4.37638 10.4747 4.36298C10.4746 4.34752 10.4719 4.33219 10.4669 4.31758C10.4605 4.30918 10.4505 4.30558 10.4389 4.30278C10.3761 4.30298 10.3723 4.37438 10.3759 4.40158C10.3707 4.40658 10.3675 4.53558 10.4533 4.57118ZM10.5311 3.85138C10.5721 3.96638 10.4997 4.07598 10.5425 4.09198C10.5819 4.10978 10.6365 3.97318 10.6571 3.84718C10.6809 3.74518 10.6081 3.53618 10.5049 3.49298C10.4969 3.49129 10.4887 3.49042 10.4805 3.49038C10.4215 3.48858 10.3563 3.52578 10.3817 3.59978C10.3667 3.63978 10.5081 3.77658 10.5311 3.85138Z" fill="white"/>
<path d="M6.24028 4.40355H6.24108L6.24188 4.40435H6.24268L6.24348 4.40515C6.26528 4.41975 6.53468 4.41955 6.56448 4.40595L6.56528 4.40515H6.56608V4.40435C6.65868 4.37015 7.09788 3.86815 7.09788 3.86815C7.07508 3.84875 7.05408 3.83435 7.03128 3.81475C7.00688 3.79355 7.00948 3.77295 7.03128 3.75175C7.14008 3.68835 7.10568 3.54915 7.04888 3.48595C7.00188 3.46475 6.95748 3.45775 6.91768 3.45975C6.87788 3.46175 6.84268 3.47315 6.81268 3.48855C6.73648 3.56155 6.71848 3.67875 6.77868 3.75175C6.83708 3.77935 6.89548 3.83815 6.85648 3.87075C6.69108 4.04735 6.26068 4.34255 6.23908 4.39635L6.23828 4.39815V4.40075L6.23908 4.40255L6.24028 4.40355ZM6.89168 3.61655C6.8934 3.61619 6.89513 3.61592 6.89688 3.61575C6.92368 3.61295 6.95628 3.63775 6.97208 3.67255C6.98908 3.70975 6.98048 3.74535 6.95288 3.75215C6.92528 3.75895 6.88928 3.73435 6.87248 3.69695C6.85568 3.65955 6.86408 3.62335 6.89168 3.61655ZM9.46048 3.89435C9.65343 4.15264 9.8395 4.416 10.0185 4.68415C10.0467 4.88435 10.0673 5.08035 10.0805 5.27535C10.1095 5.70315 10.1183 6.23555 10.0919 6.68615C10.1721 6.68935 10.3005 6.55675 10.3455 6.36255C10.3747 6.09395 10.3351 5.54595 10.3323 5.38735C10.3303 5.32155 10.3263 5.24295 10.3219 5.16075C10.5406 5.51804 10.744 5.88451 10.9315 6.25915C11.0039 6.22475 10.9879 5.81695 10.9455 5.75975C10.7865 5.41755 10.5669 5.07975 10.4969 4.94995C10.4717 4.90295 10.3855 4.77215 10.2835 4.62115C10.2647 4.40575 10.2443 4.22315 10.2311 4.16815C10.1983 3.94035 10.3247 4.19375 10.3071 4.06135C10.2661 3.83395 10.1405 3.67935 9.99228 3.47095C9.94448 3.40315 9.94548 3.38935 9.87168 3.48755C9.82748 3.58755 9.82808 3.67095 9.84108 3.74895C9.81674 3.71338 9.79078 3.67894 9.76328 3.64575C9.63528 3.53595 9.62728 3.52995 9.52108 3.44015C9.48748 3.41635 9.42368 3.37975 9.37508 3.38415C9.34588 3.38675 9.32248 3.40395 9.31388 3.44715C9.30228 3.54875 9.30828 3.60395 9.32528 3.68855C9.33788 3.74515 9.42008 3.83955 9.46048 3.89435ZM9.86908 3.87895C9.87408 3.90095 9.87888 3.92295 9.88228 3.94535C9.89328 3.99375 9.90288 4.04195 9.91288 4.08955C9.88342 4.04766 9.85247 4.00683 9.82008 3.96715C9.72408 3.85315 9.82208 3.89235 9.86908 3.87895Z" fill="white"/>
<path d="M7.49951 4.69865C7.63391 4.75425 7.71911 4.49845 7.77411 4.21845C7.81171 4.13985 7.84051 4.13085 7.85991 4.17125C7.85491 4.54365 7.88671 4.62665 7.98231 4.73965C8.19591 4.90445 8.37251 4.76045 8.38631 4.74665L8.55251 4.58045C8.58951 4.54145 8.63851 4.53925 8.69071 4.57345C8.74151 4.61965 8.73491 4.69925 8.84371 4.75445C8.93531 4.79105 9.13071 4.76345 9.17611 4.68445C9.23711 4.57985 9.25191 4.54385 9.28011 4.50425C9.32371 4.44625 9.39811 4.47205 9.39811 4.49025C9.39111 4.52265 9.34731 4.55445 9.37711 4.61265C9.42891 4.65145 9.44091 4.62645 9.47151 4.61785C9.57991 4.56605 9.66131 4.33105 9.66131 4.33105C9.66611 4.24345 9.61631 4.25005 9.58431 4.26805C9.54271 4.29345 9.54011 4.30205 9.49851 4.32745C9.44551 4.33525 9.34291 4.37025 9.29211 4.29165C9.24031 4.19705 9.23991 4.06525 9.20031 3.96985C9.20031 3.96285 9.13111 3.81985 9.19511 3.81065C9.22751 3.81665 9.29691 3.83465 9.30791 3.77645C9.34191 3.71985 9.23471 3.55925 9.16191 3.47825C9.09871 3.40885 9.01131 3.40025 8.92671 3.47125C8.86751 3.52585 8.87631 3.58665 8.86451 3.64445C8.84951 3.71085 8.85231 3.79285 8.91971 3.88065C8.97891 3.99725 9.08631 4.14685 9.05091 4.35825C9.05091 4.35825 8.98851 4.45885 8.87871 4.44565C8.83291 4.43565 8.75831 4.41585 8.71871 4.12285C8.68871 3.90105 8.72631 3.59045 8.63211 3.44505C8.61091 3.39025 8.59271 3.33685 8.56211 3.34105C8.54391 3.34345 8.52151 3.36685 8.49031 3.42325C8.46811 3.48225 8.37211 3.57145 8.44131 3.75565C8.49791 3.87245 8.52131 4.06205 8.49551 4.27345C8.45631 4.33345 8.44731 4.35425 8.39571 4.41425C8.32331 4.49205 8.24511 4.47205 8.18491 4.44305C8.12871 4.40525 8.08451 4.38585 8.05891 4.26545C8.06351 4.07385 8.07471 3.76005 8.03971 3.69345C7.98811 3.59025 7.90291 3.62725 7.86651 3.65845C7.69171 3.81825 7.60531 4.08825 7.55251 4.30305C7.50411 4.45965 7.45231 4.41425 7.41611 4.35105C7.32771 4.26825 7.32151 3.62105 7.21491 3.72745C7.04451 4.21585 7.31331 4.75065 7.49951 4.69865Z" fill="white"/>
<path d="M8.25336 3.77836C8.31956 3.59976 8.31976 3.52356 8.32416 3.44776C8.31376 3.38996 8.28876 3.36216 8.26036 3.36476C8.23196 3.36716 8.20036 3.40036 8.17456 3.46456C8.15256 3.51336 8.12556 3.76796 8.12996 3.76796C8.11236 3.84376 8.20916 3.87576 8.25336 3.77836ZM7.56236 3.73656C7.59996 3.70896 7.61276 3.69116 7.62536 3.64476C7.64096 3.56676 7.54336 3.68156 7.53096 3.59496C7.50916 3.51436 7.57156 3.48136 7.63076 3.40336C7.63216 3.36676 7.63276 3.33676 7.60896 3.33596C7.59816 3.33556 7.58196 3.34176 7.55916 3.35516C7.50796 3.38956 7.40656 3.49516 7.40356 3.61656C7.40036 3.68516 7.38756 3.68496 7.43236 3.72856C7.46456 3.77536 7.49696 3.77076 7.56236 3.73656Z" fill="white"/>
</svg>
