<svg width="17" height="14" viewBox="0 0 17 14" fill="none" xmlns="http://www.w3.org/2000/svg">
<path d="M16.5566 6.94962H7.98116C7.73631 6.94962 7.5376 6.75091 7.5376 6.50606C7.5376 6.26121 7.73631 6.0625 7.98116 6.0625H16.5566C16.8015 6.0625 17.0002 6.26121 17.0002 6.50606C17.0002 6.75091 16.8015 6.94962 16.5566 6.94962Z" fill="#F14537"/>
<path d="M14.191 9.3167C14.0774 9.3167 13.9639 9.2736 13.8775 9.18665C13.7042 9.01338 13.7042 8.73247 13.8775 8.5591L15.9297 6.50698L13.8775 4.45476C13.7042 4.2815 13.7042 4.00048 13.8775 3.82721C14.0509 3.65395 14.3318 3.65395 14.5051 3.82721L16.8707 6.19294C17.0439 6.36621 17.0439 6.64711 16.8707 6.82038L14.5051 9.186C14.4181 9.2736 14.3046 9.3167 14.191 9.3167V9.3167Z" fill="#F14537"/>
<path d="M6.50446 13.0112C9.19603 13.0112 11.5723 11.3919 12.5593 8.88539C12.6492 8.6583 12.5369 8.40046 12.3092 8.31058C12.0821 8.22189 11.8236 8.33245 11.7337 8.56138C10.8815 10.7254 8.82871 12.124 6.50446 12.124C3.40669 12.124 0.885995 9.60336 0.885995 6.50558C0.885995 3.40781 3.40669 0.88712 6.50446 0.88712C8.82871 0.88712 10.8815 2.28581 11.7337 4.44979C11.8243 4.67871 12.0821 4.78928 12.3092 4.70059C12.5369 4.61071 12.6492 4.35287 12.5593 4.12578C11.5723 1.61928 9.19603 0 6.50446 0C2.91754 0 -0.00112471 2.91866 -0.00112471 6.50558C-0.00112471 10.0925 2.91754 13.0112 6.50446 13.0112V13.0112Z" fill="#F14537"/>
</svg>
