<svg width="16" height="16" viewBox="0 0 16 16" fill="none" xmlns="http://www.w3.org/2000/svg">
<g clip-path="url(#clip0_93_2928)">
<path d="M15.5312 0.96875H4.25C3.99113 0.96875 3.78125 1.17862 3.78125 1.4375V7.56197C3.15397 7.66947 2.57553 7.98941 2.15172 8.46875H1.90625V8C1.90625 7.74113 1.69638 7.53125 1.4375 7.53125H0.46875C0.209875 7.53125 0 7.74113 0 8C0 8.25887 0.209875 8.46875 0.46875 8.46875H0.96875V14.0938H0.46875C0.209875 14.0938 0 14.3036 0 14.5625C0 14.8214 0.209875 15.0312 0.46875 15.0312H1.4375C1.69638 15.0312 1.90625 14.8214 1.90625 14.5625V14.0938H2.30203C5.2915 15.0399 5.17853 15.0312 5.3125 15.0312H11.75C12.7198 15.0312 13.3991 14.0682 13.0756 13.1562H15.5312C15.7901 13.1562 16 12.9464 16 12.6875V1.4375C16 1.17862 15.7901 0.96875 15.5312 0.96875ZM8.9375 1.90625H10.8125V4.25H8.9375V1.90625ZM12.2188 13.625C12.2188 13.8835 12.0085 14.0938 11.75 14.0938H5.38547C2.39603 13.1476 2.509 13.1562 2.375 13.1562H1.90625V9.40625H2.375C2.52387 9.40625 2.66391 9.33553 2.75225 9.21572C3.49466 8.20909 5.00475 8.20828 5.74772 9.21572C5.83609 9.33553 5.97612 9.40625 6.125 9.40625H8.46875C8.72722 9.40625 8.9375 9.61653 8.9375 9.875C8.9375 10.1335 8.72722 10.3438 8.46875 10.3438H5.65625C5.39738 10.3438 5.1875 10.5536 5.1875 10.8125C5.1875 12.1048 6.23891 13.1562 7.53125 13.1562H11.75C12.0085 13.1562 12.2188 13.3665 12.2188 13.625ZM15.0625 12.2188C14.7783 12.2188 7.91734 12.2188 7.53125 12.2188C6.92013 12.2188 6.39878 11.8269 6.20531 11.2812H8.46875C9.24416 11.2812 9.875 10.6504 9.875 9.875C9.875 9.09959 9.24416 8.46875 8.46875 8.46875H6.34828C5.9245 7.98941 5.34603 7.66947 4.71875 7.56197V1.90625H8V4.71875C8 4.97762 8.20988 5.1875 8.46875 5.1875H11.2812C11.5401 5.1875 11.75 4.97762 11.75 4.71875V1.90625H15.0625V12.2188Z" fill="#73A6CE"/>
</g>
<defs>
<clipPath id="clip0_93_2928">
<rect width="16" height="16" fill="white"/>
</clipPath>
</defs>
</svg>
