<svg width="38" height="37" viewBox="0 0 38 37" fill="none" xmlns="http://www.w3.org/2000/svg">
<path d="M26.75 18.385H6.461L9.2615 12.0805C9.3815 11.8105 9.6515 11.635 9.947 11.635H26.195C25.5357 10.9802 24.9907 10.2197 24.5825 9.38499H9.9485C8.7635 9.38499 7.688 10.084 7.2065 11.167L5.999 13.885H1.25C1.05109 13.885 0.860322 13.964 0.71967 14.1047C0.579018 14.2453 0.5 14.4361 0.5 14.635V15.655C0.499863 16.0019 0.619964 16.3381 0.839855 16.6064C1.05975 16.8747 1.36583 17.0585 1.706 17.1265L4.3265 17.65L2 22.885V34.885C2 35.2828 2.15804 35.6643 2.43934 35.9457C2.72064 36.227 3.10218 36.385 3.5 36.385H8C8.39782 36.385 8.77936 36.227 9.06066 35.9457C9.34196 35.6643 9.5 35.2828 9.5 34.885V30.385H26.75V18.385ZM8 26.635C7.70443 26.6349 7.41177 26.5766 7.13873 26.4634C6.8657 26.3502 6.61763 26.1843 6.4087 25.9752C6.19977 25.7662 6.03406 25.518 5.92104 25.2449C5.80802 24.9718 5.7499 24.6791 5.75 24.3835C5.7501 24.0879 5.80841 23.7953 5.92161 23.5222C6.03482 23.2492 6.20069 23.0011 6.40976 22.7922C6.61883 22.5833 6.86701 22.4176 7.14012 22.3045C7.41323 22.1915 7.70593 22.1334 8.0015 22.1335C8.59844 22.1337 9.17085 22.371 9.5928 22.7932C10.0148 23.2155 10.2517 23.7881 10.2515 24.385C10.2513 24.9819 10.014 25.5543 9.59174 25.9763C9.1695 26.3982 8.59694 26.6352 8 26.635ZM21.5 25.885H15.5C15.1022 25.885 14.7206 25.727 14.4393 25.4457C14.158 25.1643 14 24.7828 14 24.385C14 23.9872 14.158 23.6056 14.4393 23.3243C14.7206 23.043 15.1022 22.885 15.5 22.885H21.5C21.8978 22.885 22.2794 23.043 22.5607 23.3243C22.842 23.6056 23 23.9872 23 24.385C23 24.7828 22.842 25.1643 22.5607 25.4457C22.2794 25.727 21.8978 25.885 21.5 25.885ZM32 6.63699L34.25 5.51199V0.61899C34.25 0.45399 34.427 0.33549 34.577 0.40749C35.6007 0.892998 36.4658 1.65893 37.0717 2.61636C37.6776 3.57379 37.9995 4.68345 38 5.81649C38 8.03199 36.7865 9.94449 35 10.984V33.2605C35 34.0561 34.6839 34.8192 34.1213 35.3818C33.5587 35.9444 32.7957 36.2605 32 36.2605C31.2044 36.2605 30.4413 35.9444 29.8787 35.3818C29.3161 34.8192 29 34.0561 29 33.2605V10.9855C27.2135 9.94599 26 8.03349 26 5.81799C26 3.42849 27.401 1.37049 29.423 0.40749C29.573 0.33699 29.75 0.45399 29.75 0.62049V5.51349L32 6.63699Z" fill="#73A6CE"/>
</svg>
